<svg width="16" height="16" viewBox="0 0 16 16" fill="currentColor" xmlns="http://www.w3.org/2000/svg">
<g clip-path="url(#clip0_694_2152)">
<path d="M2.66634 4.00016H1.33301V13.3335C1.33301 14.0668 1.93301 14.6668 2.66634 14.6668H11.9997V13.3335H2.66634V4.00016ZM13.333 1.3335H5.33301C4.59967 1.3335 3.99967 1.9335 3.99967 2.66683V10.6668C3.99967 11.4002 4.59967 12.0002 5.33301 12.0002H13.333C14.0663 12.0002 14.6663 11.4002 14.6663 10.6668V2.66683C14.6663 1.9335 14.0663 1.3335 13.333 1.3335ZM13.333 10.6668H5.33301V2.66683H13.333V10.6668ZM6.66634 6.00016H11.9997V7.3335H6.66634V6.00016ZM6.66634 8.00016H9.33301V9.3335H6.66634V8.00016ZM6.66634 4.00016H11.9997V5.3335H6.66634V4.00016Z" />
</g>
<defs>
<clipPath id="clip0_694_2152">
<rect width="16" height="16" />
</clipPath>
</defs>
</svg>
