<svg width="16" height="17" viewBox="0 0 16 17" fill="none" xmlns="http://www.w3.org/2000/svg">
<g clip-path="url(#clip0_747_3785)">
<path d="M8.00065 1.83398C4.31398 1.83398 1.33398 4.81398 1.33398 8.50065C1.33398 12.1873 4.31398 15.1673 8.00065 15.1673C11.6873 15.1673 14.6673 12.1873 14.6673 8.50065C14.6673 4.81398 11.6873 1.83398 8.00065 1.83398ZM8.00065 13.834C5.06065 13.834 2.66732 11.4406 2.66732 8.50065C2.66732 5.56065 5.06065 3.16732 8.00065 3.16732C10.9406 3.16732 13.334 5.56065 13.334 8.50065C13.334 11.4406 10.9406 13.834 8.00065 13.834ZM10.394 5.16732L8.00065 7.56065L5.60732 5.16732L4.66732 6.10732L7.06065 8.50065L4.66732 10.894L5.60732 11.834L8.00065 9.44065L10.394 11.834L11.334 10.894L8.94065 8.50065L11.334 6.10732L10.394 5.16732Z" fill="#646464"/>
</g>
<defs>
<clipPath id="clip0_747_3785">
<rect width="16" height="16" fill="white" transform="translate(0 0.5)"/>
</clipPath>
</defs>
</svg>
