<svg width="14" height="17" viewBox="0 0 14 17" fill="none" xmlns="http://www.w3.org/2000/svg">
<path d="M5.125 9.5H8.125C8.3375 9.5 8.51562 9.42813 8.65938 9.28438C8.80313 9.14062 8.875 8.9625 8.875 8.75V8.1875L10.375 9.125V5.375L8.875 6.3125V5.75C8.875 5.5375 8.80313 5.35938 8.65938 5.21563C8.51562 5.07188 8.3375 5 8.125 5H5.125C4.9125 5 4.73438 5.07188 4.59063 5.21563C4.44688 5.35938 4.375 5.5375 4.375 5.75V8.75C4.375 8.9625 4.44688 9.14062 4.59063 9.28438C4.73438 9.42813 4.9125 9.5 5.125 9.5ZM7 16.25V13.625C6.0875 13.625 5.22188 13.4531 4.40313 13.1094C3.58438 12.7656 2.86875 12.3031 2.25625 11.7219C1.64375 11.1406 1.15625 10.4656 0.79375 9.69688C0.43125 8.92813 0.25 8.1125 0.25 7.25C0.25 6.3125 0.428125 5.43438 0.784375 4.61563C1.14063 3.79688 1.62188 3.08125 2.22813 2.46875C2.83438 1.85625 3.54688 1.375 4.36563 1.025C5.18438 0.675 6.0625 0.5 7 0.5C7.9375 0.5 8.81563 0.675 9.63438 1.025C10.4531 1.375 11.1688 1.85625 11.7812 2.46875C12.3938 3.08125 12.875 3.79688 13.225 4.61563C13.575 5.43438 13.75 6.3125 13.75 7.25C13.75 9.0125 13.1625 10.6781 11.9875 12.2469C10.8125 13.8156 9.15 15.15 7 16.25ZM8.5 13.55C9.7 12.65 10.625 11.6531 11.275 10.5594C11.925 9.46563 12.25 8.3625 12.25 7.25C12.25 5.8 11.7375 4.5625 10.7125 3.5375C9.6875 2.5125 8.45 2 7 2C5.55 2 4.3125 2.5125 3.2875 3.5375C2.2625 4.5625 1.75 5.8 1.75 7.25C1.75 8.55 2.275 9.6875 3.325 10.6625C4.375 11.6375 5.6 12.125 7 12.125H8.5V13.55Z" fill="#A6A6A6"/>
</svg>
