<svg width="18" height="15" viewBox="0 0 18 15" fill="none" xmlns="http://www.w3.org/2000/svg">
<path d="M0.75 13.75V12.25H2.25V0.25H9.75V1H12.75V7H11.25V2.5H9.75V13.75H0.75ZM6.75 7.75C6.9625 7.75 7.14063 7.67813 7.28438 7.53438C7.42813 7.39063 7.5 7.2125 7.5 7C7.5 6.7875 7.42813 6.60938 7.28438 6.46563C7.14063 6.32188 6.9625 6.25 6.75 6.25C6.5375 6.25 6.35938 6.32188 6.21563 6.46563C6.07188 6.60938 6 6.7875 6 7C6 7.2125 6.07188 7.39063 6.21563 7.53438C6.35938 7.67813 6.5375 7.75 6.75 7.75ZM3.75 12.25H8.25V1.75H3.75V12.25ZM14.25 14.5L15.1875 12.4375L17.25 11.5L15.1875 10.5625L14.25 8.5L13.3125 10.5625L11.25 11.5L13.3125 12.4375L14.25 14.5Z" fill="#A6A6A6"/>
</svg>
