<svg width="14" height="15" viewBox="0 0 14 15" fill="none" xmlns="http://www.w3.org/2000/svg">
<path d="M7.66634 4.16732H6.33301V6.83398H3.66634V8.16732H6.33301V10.834H7.66634V8.16732H10.333V6.83398H7.66634V4.16732ZM6.99967 0.833984C3.31967 0.833984 0.333008 3.82065 0.333008 7.50065C0.333008 11.1807 3.31967 14.1673 6.99967 14.1673C10.6797 14.1673 13.6663 11.1807 13.6663 7.50065C13.6663 3.82065 10.6797 0.833984 6.99967 0.833984ZM6.99967 12.834C4.05967 12.834 1.66634 10.4406 1.66634 7.50065C1.66634 4.56065 4.05967 2.16732 6.99967 2.16732C9.93967 2.16732 12.333 4.56065 12.333 7.50065C12.333 10.4406 9.93967 12.834 6.99967 12.834Z" fill="#646464"/>
</svg>
