<svg width="16" height="16" viewBox="0 0 16 16" fill="currentColor" xmlns="http://www.w3.org/2000/svg">
<path d="M11.967 10.7833L10.067 8.9L11.017 7.96667L11.967 8.9L14.317 6.55L15.267 7.48333L11.967 10.7833ZM7.33366 14L5.21699 12.1C4.41699 11.3778 3.73088 10.7333 3.15866 10.1667C2.58644 9.6 2.11421 9.06667 1.74199 8.56667C1.36977 8.06667 1.09755 7.58333 0.925326 7.11667C0.753103 6.65 0.666992 6.16111 0.666992 5.65C0.666992 4.60556 1.01699 3.73611 1.71699 3.04167C2.41699 2.34722 3.28921 2 4.33366 2C4.91144 2 5.46144 2.12222 5.98366 2.36667C6.50588 2.61111 6.95588 2.95556 7.33366 3.4C7.71144 2.95556 8.16144 2.61111 8.68366 2.36667C9.20588 2.12222 9.75588 2 10.3337 2C11.2337 2 11.9892 2.25278 12.6003 2.75833C13.2114 3.26389 13.6281 3.9 13.8503 4.66667H12.4337C12.2337 4.22222 11.9392 3.88889 11.5503 3.66667C11.1614 3.44444 10.7559 3.33333 10.3337 3.33333C9.76699 3.33333 9.2781 3.48611 8.86699 3.79167C8.45588 4.09722 8.07255 4.5 7.71699 5H6.95033C6.60588 4.5 6.21421 4.09722 5.77533 3.79167C5.33644 3.48611 4.85588 3.33333 4.33366 3.33333C3.70033 3.33333 3.1531 3.55278 2.69199 3.99167C2.23088 4.43056 2.00033 4.98333 2.00033 5.65C2.00033 6.01667 2.0781 6.38889 2.23366 6.76667C2.38921 7.14444 2.66699 7.58056 3.06699 8.075C3.46699 8.56944 4.01144 9.14722 4.70033 9.80833C5.38921 10.4694 6.26699 11.2667 7.33366 12.2C7.62255 11.9444 7.96144 11.65 8.35033 11.3167C8.73921 10.9833 9.05033 10.7056 9.28366 10.4833L9.43366 10.6333L9.75866 10.9583L10.0837 11.2833L10.2337 11.4333C9.98921 11.6556 9.6781 11.9306 9.30033 12.2583C8.92255 12.5861 8.58921 12.8778 8.30032 13.1333L7.33366 14Z"/>
</svg>
