<svg width="16" height="16" viewBox="0 0 16 16" fill="currentColor" xmlns="http://www.w3.org/2000/svg">
<path d="M6 14.0002V10.6668C5.31111 10.6113 4.63611 10.5335 3.975 10.4335C3.31389 10.3335 2.65556 10.1891 2 10.0002L2.33333 8.66683C3.25556 8.92239 4.18889 9.09739 5.13333 9.19183C6.07778 9.28627 7.03333 9.3335 8 9.3335C8.95556 9.3335 9.90556 9.28627 10.85 9.19183C11.7944 9.09739 12.7333 8.92239 13.6667 8.66683L14 10.0002C13.3333 10.1891 12.6694 10.3335 12.0083 10.4335C11.3472 10.5335 10.6778 10.6113 10 10.6668V14.0002H6ZM8 8.66683C7.62222 8.66683 7.30556 8.53905 7.05 8.2835C6.79444 8.02794 6.66667 7.71127 6.66667 7.3335C6.66667 6.96683 6.79444 6.65294 7.05 6.39183C7.30556 6.13072 7.62222 6.00016 8 6.00016C8.36667 6.00016 8.68056 6.13072 8.94167 6.39183C9.20278 6.65294 9.33333 6.96683 9.33333 7.3335C9.33333 7.71127 9.20278 8.02794 8.94167 8.2835C8.68056 8.53905 8.36667 8.66683 8 8.66683ZM3 6.66683C2.71111 6.66683 2.47222 6.57239 2.28333 6.3835C2.09444 6.19461 2 5.95572 2 5.66683C2 5.38905 2.09444 5.15294 2.28333 4.9585C2.47222 4.76405 2.71111 4.66683 3 4.66683C3.27778 4.66683 3.51389 4.76405 3.70833 4.9585C3.90278 5.15294 4 5.38905 4 5.66683C4 5.95572 3.90278 6.19461 3.70833 6.3835C3.51389 6.57239 3.27778 6.66683 3 6.66683ZM13 6.66683C12.7111 6.66683 12.4722 6.57239 12.2833 6.3835C12.0944 6.19461 12 5.95572 12 5.66683C12 5.38905 12.0944 5.15294 12.2833 4.9585C12.4722 4.76405 12.7111 4.66683 13 4.66683C13.2778 4.66683 13.5139 4.76405 13.7083 4.9585C13.9028 5.15294 14 5.38905 14 5.66683C14 5.95572 13.9028 6.19461 13.7083 6.3835C13.5139 6.57239 13.2778 6.66683 13 6.66683ZM4.83333 4.16683C4.54444 4.16683 4.30556 4.07239 4.11667 3.8835C3.92778 3.69461 3.83333 3.45572 3.83333 3.16683C3.83333 2.88905 3.92778 2.65294 4.11667 2.4585C4.30556 2.26405 4.54444 2.16683 4.83333 2.16683C5.11111 2.16683 5.34722 2.26405 5.54167 2.4585C5.73611 2.65294 5.83333 2.88905 5.83333 3.16683C5.83333 3.45572 5.73611 3.69461 5.54167 3.8835C5.34722 4.07239 5.11111 4.16683 4.83333 4.16683ZM11.1667 4.16683C10.8778 4.16683 10.6389 4.07239 10.45 3.8835C10.2611 3.69461 10.1667 3.45572 10.1667 3.16683C10.1667 2.88905 10.2611 2.65294 10.45 2.4585C10.6389 2.26405 10.8778 2.16683 11.1667 2.16683C11.4444 2.16683 11.6806 2.26405 11.875 2.4585C12.0694 2.65294 12.1667 2.88905 12.1667 3.16683C12.1667 3.45572 12.0694 3.69461 11.875 3.8835C11.6806 4.07239 11.4444 4.16683 11.1667 4.16683ZM8 3.3335C7.71111 3.3335 7.47222 3.23905 7.28333 3.05016C7.09444 2.86127 7 2.62239 7 2.3335C7 2.05572 7.09444 1.81961 7.28333 1.62516C7.47222 1.43072 7.71111 1.3335 8 1.3335C8.27778 1.3335 8.51389 1.43072 8.70833 1.62516C8.90278 1.81961 9 2.05572 9 2.3335C9 2.62239 8.90278 2.86127 8.70833 3.05016C8.51389 3.23905 8.27778 3.3335 8 3.3335Z"/>
</svg>
