<svg width="18" height="19" viewBox="0 0 18 19" fill="none" xmlns="http://www.w3.org/2000/svg">
<path d="M0.75 16.25V14.75H2.25V2.75H9.75V3.5H12.75V9.5H11.25V5H9.75V16.25H0.75ZM6.75 10.25C6.9625 10.25 7.14063 10.1781 7.28438 10.0344C7.42813 9.89063 7.5 9.7125 7.5 9.5C7.5 9.2875 7.42813 9.10938 7.28438 8.96563C7.14063 8.82188 6.9625 8.75 6.75 8.75C6.5375 8.75 6.35938 8.82188 6.21563 8.96563C6.07188 9.10938 6 9.2875 6 9.5C6 9.7125 6.07188 9.89063 6.21563 10.0344C6.35938 10.1781 6.5375 10.25 6.75 10.25ZM3.75 14.75H8.25V4.25H3.75V14.75ZM14.25 17L15.1875 14.9375L17.25 14L15.1875 13.0625L14.25 11L13.3125 13.0625L11.25 14L13.3125 14.9375L14.25 17Z" fill="#014CB1"/>
</svg>
