<svg width="16" height="16" viewBox="0 0 16 16" fill="currentColor" xmlns="http://www.w3.org/2000/svg">
<path d="M10.1997 11.133L11.133 10.1997L8.66634 7.73301V4.66634H7.33301V8.26634L10.1997 11.133ZM7.99967 14.6663C7.07745 14.6663 6.21079 14.4912 5.39967 14.141C4.58856 13.7912 3.88301 13.3163 3.28301 12.7163C2.68301 12.1163 2.20812 11.4108 1.85834 10.5997C1.50812 9.78856 1.33301 8.9219 1.33301 7.99967C1.33301 7.07745 1.50812 6.21079 1.85834 5.39967C2.20812 4.58856 2.68301 3.88301 3.28301 3.28301C3.88301 2.68301 4.58856 2.2079 5.39967 1.85767C6.21079 1.5079 7.07745 1.33301 7.99967 1.33301C8.9219 1.33301 9.78856 1.5079 10.5997 1.85767C11.4108 2.2079 12.1163 2.68301 12.7163 3.28301C13.3163 3.88301 13.7912 4.58856 14.141 5.39967C14.4912 6.21079 14.6663 7.07745 14.6663 7.99967C14.6663 8.9219 14.4912 9.78856 14.141 10.5997C13.7912 11.4108 13.3163 12.1163 12.7163 12.7163C12.1163 13.3163 11.4108 13.7912 10.5997 14.141C9.78856 14.4912 8.9219 14.6663 7.99967 14.6663ZM7.99967 13.333C9.47745 13.333 10.7359 12.8137 11.775 11.775C12.8137 10.7359 13.333 9.47745 13.333 7.99967C13.333 6.5219 12.8137 5.26345 11.775 4.22434C10.7359 3.18567 9.47745 2.66634 7.99967 2.66634C6.5219 2.66634 5.26367 3.18567 4.22501 4.22434C3.1859 5.26345 2.66634 6.5219 2.66634 7.99967C2.66634 9.47745 3.1859 10.7359 4.22501 11.775C5.26367 12.8137 6.5219 13.333 7.99967 13.333Z"/>
</svg>
