<svg width="14" height="16" viewBox="0 0 14 16" fill="none" xmlns="http://www.w3.org/2000/svg">
<path d="M5.125 9H8.125C8.3375 9 8.51562 8.92813 8.65938 8.78438C8.80313 8.64062 8.875 8.4625 8.875 8.25V7.6875L10.375 8.625V4.875L8.875 5.8125V5.25C8.875 5.0375 8.80313 4.85938 8.65938 4.71563C8.51562 4.57188 8.3375 4.5 8.125 4.5H5.125C4.9125 4.5 4.73438 4.57188 4.59063 4.71563C4.44688 4.85938 4.375 5.0375 4.375 5.25V8.25C4.375 8.4625 4.44688 8.64062 4.59063 8.78438C4.73438 8.92813 4.9125 9 5.125 9ZM7 15.75V13.125C6.0875 13.125 5.22188 12.9531 4.40313 12.6094C3.58438 12.2656 2.86875 11.8031 2.25625 11.2219C1.64375 10.6406 1.15625 9.96563 0.79375 9.19688C0.43125 8.42813 0.25 7.6125 0.25 6.75C0.25 5.8125 0.428125 4.93438 0.784375 4.11563C1.14063 3.29688 1.62188 2.58125 2.22813 1.96875C2.83438 1.35625 3.54688 0.875 4.36563 0.525C5.18438 0.175 6.0625 0 7 0C7.9375 0 8.81563 0.175 9.63438 0.525C10.4531 0.875 11.1688 1.35625 11.7812 1.96875C12.3938 2.58125 12.875 3.29688 13.225 4.11563C13.575 4.93438 13.75 5.8125 13.75 6.75C13.75 8.5125 13.1625 10.1781 11.9875 11.7469C10.8125 13.3156 9.15 14.65 7 15.75ZM8.5 13.05C9.7 12.15 10.625 11.1531 11.275 10.0594C11.925 8.96563 12.25 7.8625 12.25 6.75C12.25 5.3 11.7375 4.0625 10.7125 3.0375C9.6875 2.0125 8.45 1.5 7 1.5C5.55 1.5 4.3125 2.0125 3.2875 3.0375C2.2625 4.0625 1.75 5.3 1.75 6.75C1.75 8.05 2.275 9.1875 3.325 10.1625C4.375 11.1375 5.6 11.625 7 11.625H8.5V13.05Z" fill="#A6A6A6"/>
</svg>
