<svg width="24" height="24" viewBox="0 0 24 24" fill="currentColor" xmlns="http://www.w3.org/2000/svg">
<g clip-path="url(#clip0_479_18638)">
<path d="M11.0088 16.9602C11.0088 17.5058 11.4552 17.9522 12.0008 17.9522C12.5465 17.9522 12.9929 17.5058 12.9929 16.9602C12.9929 16.4145 12.5465 15.9681 12.0008 15.9681C11.4552 15.9681 11.0088 16.4145 11.0088 16.9602ZM11.0088 3.07129V7.03954H12.9929V5.13478C16.356 5.62089 18.9453 8.49788 18.9453 11.9999C18.9453 15.8391 15.8401 18.9443 12.0008 18.9443C8.16155 18.9443 5.05639 15.8391 5.05639 11.9999C5.05639 10.3332 5.64171 8.80542 6.62385 7.61494L12.0008 12.9919L13.3996 11.5931L6.65361 4.84708V4.86692C4.481 6.49391 3.07227 9.07327 3.07227 11.9999C3.07227 16.9304 7.06036 20.9284 12.0008 20.9284C16.9314 20.9284 20.9294 16.9304 20.9294 11.9999C20.9294 7.06931 16.9314 3.07129 12.0008 3.07129H11.0088ZM17.9532 11.9999C17.9532 11.4542 17.5068 11.0078 16.9612 11.0078C16.4155 11.0078 15.9691 11.4542 15.9691 11.9999C15.9691 12.5455 16.4155 12.9919 16.9612 12.9919C17.5068 12.9919 17.9532 12.5455 17.9532 11.9999ZM6.04846 11.9999C6.04846 12.5455 6.49488 12.9919 7.04052 12.9919C7.58615 12.9919 8.03258 12.5455 8.03258 11.9999C8.03258 11.4542 7.58615 11.0078 7.04052 11.0078C6.49488 11.0078 6.04846 11.4542 6.04846 11.9999Z" />
</g>
<defs>
<clipPath id="clip0_479_18638">
<rect width="23.8095" height="23.8095" transform="translate(0.0957031 0.0952148)"/>
</clipPath>
</defs>
</svg>
