<svg width="22" height="23" viewBox="0 0 22 23" fill="none" xmlns="http://www.w3.org/2000/svg">
<path d="M10.6667 3.49967C12.1333 3.49967 13.3333 4.69967 13.3333 6.16634C13.3333 7.63301 12.1333 8.83301 10.6667 8.83301C9.2 8.83301 8 7.63301 8 6.16634C8 4.69967 9.2 3.49967 10.6667 3.49967ZM10.6667 16.833C14.2667 16.833 18.4 18.553 18.6667 19.4997H2.66667C2.97333 18.5397 7.08 16.833 10.6667 16.833ZM10.6667 0.833008C7.72 0.833008 5.33333 3.21967 5.33333 6.16634C5.33333 9.11301 7.72 11.4997 10.6667 11.4997C13.6133 11.4997 16 9.11301 16 6.16634C16 3.21967 13.6133 0.833008 10.6667 0.833008ZM10.6667 14.1663C7.10667 14.1663 0 15.953 0 19.4997V22.1663H21.3333V19.4997C21.3333 15.953 14.2267 14.1663 10.6667 14.1663Z" fill="#646464"/>
</svg>
